PathFileType	4	(X/Y/Z)	path1_18_0-549.trc
DataRate	CameraRate	NumFrames	NumMarkers	Units	OrigDataRate	OrigDataStartFrame	OrigNumFrames
30	30	7	22	m	30	205	549
Frame#	Time	Hip			RHip			RKnee			RAnkle			RBigToe			RSmallToe			RHeel			LHip			LKnee			LAnkle			LBigToe			LSmallToe			LHeel			Neck			Head			Nose			RShoulder			RElbow			RWrist			LShoulder			LElbow			LWrist		
		X1	Y1	Z1	X2	Y2	Z2	X3	Y3	Z3	X4	Y4	Z4	X5	Y5	Z5	X6	Y6	Z6	X7	Y7	Z7	X8	Y8	Z8	X9	Y9	Z9	X10	Y10	Z10	X11	Y11	Z11	X12	Y12	Z12	X13	Y13	Z13	X14	Y14	Z14	X15	Y15	Z15	X16	Y16	Z16	X17	Y17	Z17	X18	Y18	Z18	X19	Y19	Z19	X20	Y20	Z20	X21	Y21	Z21	X22	Y22	Z22
206	6.866666666666666	2.5038930974247986	0.8304085021260672	0.6033737663395283	2.507250620162114	0.790289334676752	0.5266875895008367	2.489498444678361	0.46064530797415926	0.525762039257139	2.559350435746244	0.0980419743180284	0.5677993504591858	2.36395999796281	0.01654513753823272	0.5454485630304132	2.3999450449483226	0.02282504307697225	0.4794426042169586	2.610471742521797	0.03354444748806735	0.5694311618584643	2.4949981181052436	0.7866051170551396	0.6848899868028854	2.5083864875658124	0.4302556664381859	0.6579604716358851	2.553419268135518	0.09722121276614647	0.6676646390258967	2.384504329081045	0.018871992538142906	0.6766348748177577	2.414381552192572	0.024044103027444863	0.7342004467558207	2.5857033039403223	0.03850039764510043	0.6744432799323966	2.4674329284346417	1.4678536523266406	0.6279239042964708	2.4377696425910846	1.7103777085388063	0.5603537845369713	2.329720082546707	1.6059665626177635	0.599400172080906	2.5284089880064173	1.3632097382756219	0.4540630951943055	2.517308739730577	1.0747213187084486	0.4011703812765718	2.504211047084457	0.8429945695681549	0.40371935737266346	2.460993747469469	1.3415222427139175	0.7932430357726136	2.4986555272362936	1.064014717001355	0.8216977308886918	2.4911680923959776	0.8302458105860261	0.8186544862883168
207	6.9	2.504474304810466	0.8306596246422269	0.6034247454791363	2.5078700544728485	0.7908238918572166	0.5265383568188705	2.489571052538623	0.4606315971023006	0.5261052969968409	2.559633479270246	0.09808098756460859	0.567679510918373	2.36450304483599	0.01684990015229357	0.5454357749639934	2.4001381670409208	0.02262006742168055	0.4792926808413683	2.6103257315921913	0.03369813616595428	0.5687367142961068	2.4955373326826775	0.7872140268329043	0.6849863724691851	2.508899443001858	0.43013333981477614	0.6577334545635988	2.5515734538654464	0.09865729528324928	0.6686785307143109	2.384365534993259	0.01889267390221845	0.6766890198513511	2.4143771849695455	0.02408623905367879	0.7342550900184539	2.5848555137541025	0.038442301888253844	0.6748366692673471	2.4671794225171038	1.467635139739335	0.6277060388753352	2.437444356983782	1.71039303398914	0.5601545645147508	2.3294245572448378	1.6060722960064615	0.5988144558792017	2.52836346679826	1.3630759609720986	0.4541200191508505	2.5172641723478506	1.0747287617327759	0.40088716884003195	2.504279826133581	0.842849051429298	0.4037941084397256	2.4609643525556266	1.3415281750331862	0.7931925860463961	2.499029750965275	1.0638357879694524	0.8217946210517922	2.4915819262984273	0.829994798932954	0.8186184054927457
208	6.933333333333334	2.5049169493912222	0.830963803648761	0.6035303643494332	2.508500053314995	0.7912757374426554	0.526405210482365	2.4895717972561067	0.4606260295742662	0.5264208562236534	2.5597799839568354	0.09798116095890824	0.5676064634714617	2.364978005676978	0.016899006662026317	0.5452684869273763	2.4002089458762015	0.02240139156067899	0.4790625660130778	2.610016431029562	0.033835864616001125	0.567520778617112	2.495987753299663	0.78764348001177	0.6850481459677389	2.509340469900941	0.43012197856710327	0.6577034284786937	2.5492052833349717	0.10053141639013022	0.6697404716848442	2.3841205892236905	0.0190123831373911	0.6765616537122061	2.4140965325338177	0.024172334788662625	0.7340991695453049	2.583867361423302	0.038526221031651334	0.6750770157454091	2.4669407286276606	1.4675252737838693	0.6274083260335515	2.437127316645111	1.7103057550361214	0.5599768584510605	2.3292103546327594	1.6059574424340546	0.5983887392380797	2.528386168693617	1.3629924737764347	0.45413603831761534	2.517048345978394	1.0748327174800905	0.40070062275166657	2.504274152347835	0.8428043845750999	0.4039231086472931	2.460703875688009	1.3416366159532054	0.7931981917397959	2.4992897804248044	1.0637659569276057	0.8218884167597366	2.4918983825341456	0.8298661371342434	0.8185790069675203
209	6.966666666666667	2.5051967490453766	0.8312424232482922	0.6036556185703399	2.509043626969886	0.7915663526023063	0.5263261369551766	2.4895577997581597	0.4605674892984141	0.5266692078660785	2.5597292135420497	0.0978285237605139	0.5675493034190018	2.365206406261122	0.016581194610165186	0.5448071496963883	2.400161118303163	0.022199503129394907	0.4788097906644405	2.609510091989678	0.03397587419787486	0.5658949384382349	2.4963325552411852	0.7878365749703126	0.6850801978604271	2.5096279760688525	0.4301404272496513	0.6577751791062657	2.546656623465105	0.10265801308735299	0.6706945463730192	2.383772005648487	0.019217035013366704	0.6763434321525461	2.41364374018991	0.02431057771548761	0.7337917111124956	2.5828995826755636	0.03874164228477344	0.6752266796562173	2.4667258303019217	1.4675373632002053	0.6271149374559021	2.436865006622144	1.7101769315818482	0.5595221508961642	2.329067766431043	1.6057464812469504	0.597958075940371	2.528363417968738	1.362974712132834	0.45408770384721575	2.516720356080032	1.0750193430097728	0.4006070857302456	2.50416622727472	0.8428810032540194	0.40406900613030755	2.460415649352624	1.3418163529145084	0.7932690209761982	2.4993947721847833	1.0637735364769918	0.821928831926635	2.492024200061662	0.8298890741579666	0.8185265122031575
210	7.0	2.505324110303055	0.8314367725854543	0.6037588212746134	2.5094443143039538	0.791662257196323	0.5263467300406693	2.489579864716461	0.46044267924810706	0.5268356620092691	2.5595113897361874	0.09770596529157763	0.5674939841538306	2.3650815895956336	0.01587806460676288	0.5440052377014689	2.40003316177574	0.02203032495636994	0.47858001691318997	2.608934920166799	0.034110577921126636	0.5643483077681588	2.4965884218063366	0.7878227515479002	0.6850933790381708	2.509675768648984	0.4301474646896579	0.6579165037018646	2.544003373493246	0.10505680073832158	0.6715766154515954	2.383364727694585	0.019487942523192196	0.6761411311689883	2.4131888600407345	0.024484281271839613	0.7334282962167242	2.5820992257214157	0.03904082278612343	0.6753470265846089	2.466536361212923	1.4676601664485096	0.6268816142613176	2.4366757905086165	1.7100693078360392	0.5586652346513604	2.3289488503586857	1.6055764184392456	0.597458120266327	2.5282489302958955	1.363053608884745	0.4539996761841636	2.5163553655510045	1.0752487217946114	0.4005976493157968	2.5040205769718518	0.8430307830825137	0.40422051336737347	2.460251938201962	1.3419942920367463	0.7933812374611501	2.499351908045937	1.0638334300309087	0.8218514132546605	2.49193565019215	0.8300097199972924	0.8184463901773062
211	7.033333333333333	2.5053336575811653	0.831512338287918	0.6038137331882255	2.5096845675678274	0.7915720323350559	0.5264649330590223	2.489649475820921	0.46028831800870634	0.5269278840098165	2.5592179428270616	0.09762000756859554	0.5674395794857072	2.364610493078923	0.014860284541429757	0.5429685089275154	2.399842571149554	0.02189729267201246	0.47842020718596484	2.6084796244848163	0.03422084533220806	0.5636013925718518	2.4967775296360304	0.7876932046380917	0.6850985576481138	2.509479282933987	0.43009850824175055	0.6581314664949276	2.541398981095677	0.10759181038318325	0.6724910493066496	2.3830061117852774	0.019748043010213358	0.6759930710223497	2.4128901323922722	0.024637172795777755	0.7330691261317541	2.581596303665641	0.03938287408275346	0.6754326825503687	2.4663842265218134	1.4678552450295044	0.6267249383824486	2.436581207709878	1.710029048200712	0.5575655401713561	2.3288039491111316	1.6055111201447263	0.5968966100930801	2.528068981981339	1.3632415737859906	0.45391278296793264	2.516005776631939	1.075479106548938	0.4006473685742379	2.503941548931828	0.8431670740853279	0.4043589707065479	2.4602451712347353	1.3421180083219728	0.7934677157182575	2.499211594881607	1.063922454617922	0.8216028752438891	2.491700387796998	0.83015946426188	0.8183281600212496
212	7.066666666666666	2.5052765473328154	0.8314461185154141	0.6038127565168367	2.5097686749276007	0.7913280167217669	0.5266089499780594	2.4897468569006085	0.4601556926404326	0.5269407973334242	2.558948329839165	0.09753962678683974	0.5674026732918129	2.3639684145047695	0.013839871243465363	0.54196888797791	2.3995649782828288	0.021816285471195237	0.4783900547488362	2.608232397658252	0.0342824911217472	0.5640204368191087	2.496905720843442	0.7875275011471741	0.6850744448557007	2.5091371298374794	0.4299589062199665	0.6584196869795488	2.5393070835295073	0.1098259279084863	0.6734776322143782	2.382812109191929	0.019856193279511096	0.6758476288684442	2.4128460093155994	0.024683331818903448	0.7327195659987682	2.5815019211507826	0.0397326128038375	0.6754296649763327	2.466288138574501	1.4680502031340905	0.6266640782596228	2.4365715299120025	1.7100700900316346	0.5565659299364022	2.3286113263556625	1.6055104327352996	0.5962968773337196	2.527851363851233	1.3634880345711458	0.4538173364598129	2.515708260719777	1.0756676462721133	0.40069116343862576	2.503980050076267	0.843217361806847	0.40444574503776254	2.460391922851879	1.3421613835210329	0.793453350041162	2.4990157461443014	1.0640041581101176	0.8211737944687828	2.4914426607497804	0.8302743460325626	0.818173225925256
